<svg width="16" height="16" viewBox="0 0 16 16" fill="none" xmlns="http://www.w3.org/2000/svg">
<path d="M0.666722 6.66589C0.489897 6.66589 0.320313 6.59564 0.195279 6.47061C0.0702439 6.34558 0 6.17599 0 5.99917V0.666722C0 0.489896 0.0702439 0.320313 0.195279 0.195279C0.320313 0.0702439 0.489897 0 0.666722 0H6.0005C6.17733 0 6.34691 0.0702439 6.47194 0.195279C6.59698 0.320313 6.66722 0.489896 6.66722 0.666722V5.99917C6.66722 6.17599 6.59698 6.34558 6.47194 6.47061C6.34691 6.59564 6.17733 6.66589 6.0005 6.66589H0.666722ZM10.0008 6.66589C9.82401 6.66589 9.65442 6.59564 9.52939 6.47061C9.40436 6.34558 9.33411 6.17599 9.33411 5.99917V0.666722C9.33411 0.489896 9.40436 0.320313 9.52939 0.195279C9.65442 0.0702439 9.82401 0 10.0008 0H15.3333C15.5101 0 15.6797 0.0702439 15.8047 0.195279C15.9298 0.320313 16 0.489896 16 0.666722V5.99917C16 6.17599 15.9298 6.34558 15.8047 6.47061C15.6797 6.59564 15.5101 6.66589 15.3333 6.66589H10.0008ZM0.666722 16C0.489897 16 0.320313 15.9298 0.195279 15.8047C0.0702439 15.6797 0 15.5101 0 15.3333V9.9995C0 9.82267 0.0702439 9.65309 0.195279 9.52806C0.320313 9.40302 0.489897 9.33278 0.666722 9.33278H6.0005C6.17733 9.33278 6.34691 9.40302 6.47194 9.52806C6.59698 9.65309 6.66722 9.82267 6.66722 9.9995V15.3333C6.66722 15.5101 6.59698 15.6797 6.47194 15.8047C6.34691 15.9298 6.17733 16 6.0005 16H0.666722ZM10.0008 16C9.82401 16 9.65442 15.9298 9.52939 15.8047C9.40436 15.6797 9.33411 15.5101 9.33411 15.3333V9.9995C9.33411 9.82267 9.40436 9.65309 9.52939 9.52806C9.65442 9.40302 9.82401 9.33278 10.0008 9.33278H15.3333C15.5101 9.33278 15.6797 9.40302 15.8047 9.52806C15.9298 9.65309 16 9.82267 16 9.9995V15.3333C16 15.5101 15.9298 15.6797 15.8047 15.8047C15.6797 15.9298 15.5101 16 15.3333 16H10.0008Z" fill="black"/>
</svg>
