<svg width="25" height="25" viewBox="0 0 25 25" fill="none" xmlns="http://www.w3.org/2000/svg">
<path d="M16.6666 7.29167C16.6666 7.0154 16.7764 6.75045 16.9717 6.5551C17.1671 6.35975 17.432 6.25 17.7083 6.25C17.9846 6.25 18.2495 6.35975 18.4449 6.5551C18.6402 6.75045 18.75 7.0154 18.75 7.29167C18.75 7.56793 18.6402 7.83289 18.4449 8.02824C18.2495 8.22359 17.9846 8.33333 17.7083 8.33333C17.432 8.33333 17.1671 8.22359 16.9717 8.02824C16.7764 7.83289 16.6666 7.56793 16.6666 7.29167Z" fill="black"/>
<path fill-rule="evenodd" clip-rule="evenodd" d="M12.5 7.55212C11.1878 7.55212 9.92925 8.07342 9.00134 9.00134C8.07342 9.92925 7.55212 11.1878 7.55212 12.5C7.55212 13.8123 8.07342 15.0708 9.00134 15.9987C9.92925 16.9267 11.1878 17.448 12.5 17.448C13.8123 17.448 15.0708 16.9267 15.9987 15.9987C16.9267 15.0708 17.448 13.8123 17.448 12.5C17.448 11.1878 16.9267 9.92925 15.9987 9.00134C15.0708 8.07342 13.8123 7.55212 12.5 7.55212ZM9.11462 12.5C9.11462 11.6022 9.4713 10.7411 10.1062 10.1062C10.7411 9.4713 11.6022 9.11462 12.5 9.11462C13.3979 9.11462 14.259 9.4713 14.8939 10.1062C15.5288 10.7411 15.8855 11.6022 15.8855 12.5C15.8855 13.3979 15.5288 14.259 14.8939 14.8939C14.259 15.5288 13.3979 15.8855 12.5 15.8855C11.6022 15.8855 10.7411 15.5288 10.1062 14.8939C9.4713 14.259 9.11462 13.3979 9.11462 12.5Z" fill="black"/>
<path fill-rule="evenodd" clip-rule="evenodd" d="M17.9771 2.9511C14.3369 2.54755 10.6632 2.54755 7.02295 2.9511C4.92712 3.18547 3.23441 4.83651 2.98858 6.94276C2.5567 10.635 2.5567 14.3651 2.98858 18.0573C3.23441 20.1636 4.92608 21.8146 7.02295 22.049C10.6632 22.4521 14.3369 22.4521 17.9771 22.049C20.073 21.8146 21.7657 20.1636 22.0115 18.0573C22.4434 14.3651 22.4434 10.635 22.0115 6.94276C21.7657 4.83651 20.074 3.18547 17.9771 2.9511ZM7.19587 4.50318C10.7212 4.11242 14.2789 4.11242 17.8042 4.50318C19.1896 4.65943 20.299 5.75214 20.4605 7.12506C20.8781 10.6962 20.8781 14.3039 20.4605 17.8751C20.3769 18.547 20.0694 19.1711 19.5874 19.6467C19.1054 20.1222 18.4772 20.4214 17.8042 20.4959C14.2789 20.8867 10.7212 20.8867 7.19587 20.4959C6.52289 20.4214 5.89467 20.1222 5.4127 19.6467C4.93072 19.1711 4.62313 18.547 4.53962 17.8751C4.12196 14.3039 4.12196 10.6962 4.53962 7.12506C4.62313 6.45314 4.93072 5.82899 5.4127 5.35344C5.89467 4.87789 6.52289 4.57767 7.19587 4.50318Z" fill="black"/>
</svg>
