<svg width="21" height="26" viewBox="0 0 21 26" fill="none" xmlns="http://www.w3.org/2000/svg">
<path d="M10.2143 14.8572C9.296 14.8572 8.39835 14.5849 7.63484 14.0747C6.87132 13.5645 6.27624 12.8394 5.92483 11.991C5.57342 11.1427 5.48148 10.2092 5.66062 9.30853C5.83977 8.4079 6.28196 7.58062 6.93128 6.93131C7.58059 6.28199 8.40787 5.8398 9.30849 5.66065C10.2091 5.48151 11.1426 5.57345 11.991 5.92486C12.8394 6.27627 13.5645 6.87135 14.0747 7.63487C14.5848 8.39838 14.8571 9.29603 14.8571 10.2143C14.8557 11.4452 14.366 12.6253 13.4956 13.4957C12.6253 14.3661 11.4452 14.8557 10.2143 14.8572ZM10.2143 7.42859C9.66331 7.42859 9.12472 7.59197 8.66661 7.89806C8.2085 8.20416 7.85145 8.63923 7.64061 9.14825C7.42976 9.65728 7.3746 10.2174 7.48208 10.7578C7.58957 11.2981 7.85488 11.7945 8.24447 12.1841C8.63406 12.5737 9.13043 12.839 9.67081 12.9465C10.2112 13.054 10.7713 12.9988 11.2803 12.788C11.7893 12.5771 12.2244 12.2201 12.5305 11.762C12.8366 11.3039 13 10.7653 13 10.2143C12.9992 9.47571 12.7055 8.76758 12.1833 8.24532C11.661 7.72306 10.9529 7.42932 10.2143 7.42859Z" fill="black"/>
<path d="M10.2143 26L2.38087 16.7616C2.27202 16.6229 2.1643 16.4833 2.05773 16.3429C0.719636 14.5802 -0.00323253 12.4273 1.0867e-05 10.2143C1.0867e-05 7.50529 1.07616 4.90725 2.99171 2.9917C4.90726 1.07615 7.5053 0 10.2143 0C12.9233 0 15.5213 1.07615 17.4369 2.9917C19.3524 4.90725 20.4286 7.50529 20.4286 10.2143C20.4318 12.4263 19.7093 14.5782 18.3718 16.3401L18.3709 16.3429C18.3709 16.3429 18.0923 16.7087 18.0505 16.7579L10.2143 26ZM3.53973 15.2239C3.54158 15.2239 3.75701 15.5099 3.80623 15.5712L10.2143 23.1289L16.6307 15.561C16.6716 15.5099 16.8889 15.2221 16.8898 15.2211C17.9829 13.781 18.5736 12.0222 18.5714 10.2143C18.5714 7.99783 17.691 5.87216 16.1237 4.30489C14.5564 2.73762 12.4307 1.85714 10.2143 1.85714C7.99784 1.85714 5.87217 2.73762 4.3049 4.30489C2.73764 5.87216 1.85715 7.99783 1.85715 10.2143C1.85521 12.0234 2.44566 13.7832 3.53973 15.2239Z" fill="black"/>
</svg>
