<svg width="25" height="25" viewBox="0 0 25 25" fill="none" xmlns="http://www.w3.org/2000/svg">
<path d="M14.5833 12.5L10.9375 14.5833V10.4166L14.5833 12.5Z" fill="black" stroke="black" stroke-width="1.5" stroke-linecap="round" stroke-linejoin="round"/>
<path d="M2.08337 13.2364V11.7625C2.08337 8.74683 2.08337 7.2385 3.02608 6.26871C3.96983 5.29788 5.45525 5.25621 8.42504 5.17183C9.83129 5.13225 11.2688 5.10413 12.5 5.10413C13.7302 5.10413 15.1677 5.13225 16.575 5.17183C19.5448 5.25621 21.0303 5.29788 21.973 6.26871C22.9167 7.2385 22.9167 8.74788 22.9167 11.7625V13.2364C22.9167 16.2531 22.9167 17.7604 21.974 18.7312C21.0302 19.701 19.5459 19.7437 16.575 19.827C15.1688 19.8677 13.7313 19.8958 12.5 19.8958C11.1415 19.8917 9.78299 19.8688 8.42504 19.827C5.45525 19.7437 3.96983 19.702 3.02608 18.7312C2.08337 17.7604 2.08337 16.252 2.08337 13.2375V13.2364Z" stroke="black" stroke-width="1.5"/>
</svg>
